<?xml version="1.0" encoding="UTF-8" standalone="no"?>
<svg
   xmlns:dc="http://purl.org/dc/elements/1.1/"
   xmlns:cc="http://creativecommons.org/ns#"
   xmlns:rdf="http://www.w3.org/1999/02/22-rdf-syntax-ns#"
   xmlns:svg="http://www.w3.org/2000/svg"
   xmlns="http://www.w3.org/2000/svg"
   viewBox="0 0 474.9375 220.86501"
   height="220.86501"
   width="474.9375"
   xml:space="preserve"
   version="1.1"
   id="svg2"><metadata
     id="metadata8"><rdf:RDF><cc:Work
         rdf:about=""><dc:format>image/svg+xml</dc:format><dc:type
           rdf:resource="http://purl.org/dc/dcmitype/StillImage" /></cc:Work></rdf:RDF></metadata><defs
     id="defs6"><clipPath
       id="clipPath46"
       clipPathUnits="userSpaceOnUse"><path
         id="path48"
         d="m 0,176.692 379.95,0 L 379.95,0 0,0 0,176.692 Z" /></clipPath></defs><g
     transform="matrix(1.25,0,0,-1.25,0,220.865)"
     id="g10"><g
       transform="translate(259.7314,104.8799)"
       id="g12"><path
         id="path14"
         style="fill:#2cb9f1;fill-opacity:1;fill-rule:nonzero;stroke:none"
         d="m 0,0 0,33.073 -115.643,0 0,-33.073 0,-2.665 0,-30.404 0,-10e-4 0,-33.07 171.986,0 0,33.07 23.029,0 0,33.07 L 0,0 Z" /></g><path
       id="path16"
       style="fill:#ee263a;fill-opacity:1;fill-rule:nonzero;stroke:none"
       d="m 40.848,38.74 99.212,0 0,99.212 -99.212,0 0,-99.212 z" /><g
       transform="translate(292.1172,96.8301)"
       id="g18"><path
         id="path20"
         style="fill:#ffffff;fill-opacity:1;fill-rule:nonzero;stroke:none"
         d="m 0,0 2.19,0 2.873,3.109 -3.084,0 L 0,0 Z" /></g><g
       transform="translate(266.6104,96.8301)"
       id="g22"><path
         id="path24"
         style="fill:#ffffff;fill-opacity:1;fill-rule:nonzero;stroke:none"
         d="m 0,0 2.236,3.109 -2.332,0 -1.295,-1.672 -1.295,1.672 -2.425,0 L -2.874,0 0,0 Z" /></g><g
       transform="translate(229.0186,112.6367)"
       id="g26"><path
         id="path28"
         style="fill:#ffffff;fill-opacity:1;fill-rule:nonzero;stroke:none"
         d="m 0,0 2.827,0 0,14.037 4.71,0 0,2.45 -12.247,0 0,-2.45 4.71,0 L 0,0 Z" /></g><g
       transform="translate(157.5137,119.7026)"
       id="g30"><path
         id="path32"
         style="fill:#ffffff;fill-opacity:1;fill-rule:nonzero;stroke:none"
         d="m 0,0 6.359,0 0,2.448 -6.359,0 0,4.523 6.83,0 0,2.45 -9.657,0 0,-16.487 2.827,0 L 0,0 Z" /></g><g
       transform="translate(171.9038,125.4966)"
       id="g34"><path
         id="path36"
         style="fill:#ffffff;fill-opacity:1;fill-rule:nonzero;stroke:none"
         d="m 0,0 0.094,0 2.073,-6.242 -4.263,0 L 0,0 Z m -2.897,-8.691 5.865,0 1.389,-4.169 2.945,0 -5.677,16.487 -2.92,0 -5.676,-16.487 2.685,0 1.389,4.169 z" /></g><g
       transform="translate(243.292,125.4966)"
       id="g38"><path
         id="path40"
         style="fill:#ffffff;fill-opacity:1;fill-rule:nonzero;stroke:none"
         d="m 0,0 0.095,0 2.072,-6.242 -4.264,0 L 0,0 Z m -4.286,-12.86 1.389,4.169 5.865,0 1.389,-4.169 2.945,0 -5.677,16.487 -2.92,0 -5.677,-16.487 2.686,0 z" /></g><g
       id="g42"><g
         clip-path="url(#clipPath46)"
         id="g44"><g
           transform="translate(202.0508,112.6367)"
           id="g50"><path
             id="path52"
             style="fill:#ffffff;fill-opacity:1;fill-rule:nonzero;stroke:none"
             d="m 0,0 4.24,0 c 2.379,0 4.004,1.625 4.004,4.004 l 0,12.483 -2.826,0 0,-12.624 C 5.418,3.014 4.852,2.449 4.004,2.449 l -3.768,0 c -0.848,0 -1.413,0.565 -1.413,1.414 l 0,12.624 -2.827,0 0,-12.483 C -4.004,1.625 -2.378,0 0,0" /></g><g
           transform="translate(185.1636,117.4648)"
           id="g54"><path
             id="path56"
             style="fill:#ffffff;fill-opacity:1;fill-rule:nonzero;stroke:none"
             d="m 0,0 1.814,2.332 4.641,-7.16 3.414,0 -6.195,9.539 5.418,6.948 -3.086,0 -5.888,-7.537 -0.118,0 0,7.537 -2.826,0 0,-16.487 2.826,0 L 0,0 Z" /></g><g
           transform="translate(224.4268,115.0859)"
           id="g58"><path
             id="path60"
             style="fill:#ffffff;fill-opacity:1;fill-rule:nonzero;stroke:none"
             d="m 0,0 -6.831,0 0,14.038 -2.826,0 0,-16.487 9.657,0 L 0,0 Z" /></g><g
           transform="translate(231.5615,79.5664)"
           id="g62"><path
             id="path64"
             style="fill:#ffffff;fill-opacity:1;fill-rule:nonzero;stroke:none"
             d="m 0,0 4.453,10.15 0.118,0 0,-10.15 2.802,0 0,16.487 -2.708,0 -4.568,-10.481 -0.097,0 -4.567,10.481 -2.945,0 0,-16.487 2.825,0 0,10.15 0.12,0 L -0.14,0 0,0 Z" /></g><g
           transform="translate(246.873,86.1836)"
           id="g66"><path
             id="path68"
             style="fill:#ffffff;fill-opacity:1;fill-rule:nonzero;stroke:none"
             d="m 0,0 2.096,6.242 0.092,0 L 4.263,0 0,0 Z m 6.453,-6.617 2.943,0 -5.675,16.487 -2.921,0 -5.676,-16.487 2.685,0 1.39,4.169 5.864,0 1.39,-4.169 z" /></g><g
           transform="translate(215.8057,88.375)"
           id="g70"><path
             id="path72"
             style="fill:#ffffff;fill-opacity:1;fill-rule:nonzero;stroke:none"
             d="m 0,0 -4.475,0 0,5.228 4.475,0 c 0.849,0 1.414,-0.565 1.414,-1.413 l 0,-2.402 C 1.414,0.565 0.849,0 0,0 m 4.711,-8.809 -3.392,6.477 c 1.767,0.424 2.921,1.884 2.921,3.886 l 0,2.12 c 0,2.379 -1.625,4.004 -4.004,4.004 l -7.537,0 0,-16.487 2.826,0 0,6.359 2.755,0 3.323,-6.359 3.108,0 z" /></g><g
           transform="translate(267.1035,79.5664)"
           id="g74"><path
             id="path76"
             style="fill:#ffffff;fill-opacity:1;fill-rule:nonzero;stroke:none"
             d="m 0,0 c 2.379,0 4.004,1.625 4.004,4.004 l 0,1.013 -2.825,0 0,-1.156 c 0,-0.846 -0.566,-1.413 -1.413,-1.413 l -3.298,0 c -0.849,0 -1.413,0.567 -1.413,1.413 l 0,8.763 c 0,0.848 0.564,1.413 1.413,1.413 l 3.298,0 c 0.847,0 1.413,-0.565 1.413,-1.413 l 0,-1.154 2.825,0 0,1.012 c 0,2.38 -1.625,4.005 -4.004,4.005 l -3.769,0 c -2.377,0 -4.002,-1.625 -4.002,-4.005 l 0,-8.478 C -7.771,1.625 -6.146,0 -3.769,0 L 0,0 Z" /></g><g
           transform="translate(196.0215,82.0146)"
           id="g78"><path
             id="path80"
             style="fill:#ffffff;fill-opacity:1;fill-rule:nonzero;stroke:none"
             d="m 0,0 c -0.848,0 -1.412,0.566 -1.412,1.413 l 0,8.762 c 0,0.848 0.564,1.413 1.412,1.413 l 3.77,0 c 0.846,0 1.413,-0.565 1.413,-1.413 l 0,-8.762 C 5.183,0.566 4.616,0 3.77,0 L 0,0 Z m 8.009,1.556 0,8.478 c 0,2.38 -1.625,4.005 -4.004,4.005 l -4.239,0 c -2.379,0 -4.004,-1.625 -4.004,-4.005 l 0,-8.478 c 0,-2.379 1.625,-4.004 4.004,-4.004 l 4.239,0 c 2.379,0 4.004,1.625 4.004,4.004" /></g><path
           id="path82"
           style="fill:#ffffff;fill-opacity:1;fill-rule:nonzero;stroke:none"
           d="m 154.688,79.566 2.826,0 0,16.487 -2.826,0 0,-16.487 z" /><g
           transform="translate(324.3369,96.0532)"
           id="g84"><path
             id="path86"
             style="fill:#ffffff;fill-opacity:1;fill-rule:nonzero;stroke:none"
             d="m 0,0 0,-6.972 -6.595,0 0,6.972 -2.826,0 0,-16.487 2.826,0 0,7.066 6.595,0 0,-7.066 2.827,0 L 2.827,0 0,0 Z" /></g><g
           transform="translate(306.9082,96.0532)"
           id="g88"><path
             id="path90"
             style="fill:#ffffff;fill-opacity:1;fill-rule:nonzero;stroke:none"
             d="m 0,0 -3.769,0 c -2.378,0 -4.003,-1.625 -4.003,-4.004 l 0,-8.479 c 0,-2.379 1.625,-4.004 4.003,-4.004 l 3.769,0 c 2.379,0 4.004,1.625 4.004,4.004 l 0,1.013 -2.827,0 0,-1.155 c 0,-0.847 -0.564,-1.414 -1.412,-1.414 l -3.298,0 c -0.848,0 -1.413,0.567 -1.413,1.414 l 0,8.762 c 0,0.848 0.565,1.413 1.413,1.413 l 3.298,0 c 0.848,0 1.412,-0.565 1.412,-1.413 l 0,-1.154 2.827,0 0,1.013 C 4.004,-1.625 2.379,0 0,0" /></g><g
           transform="translate(187.896,89.0811)"
           id="g92"><path
             id="path94"
             style="fill:#ffffff;fill-opacity:1;fill-rule:nonzero;stroke:none"
             d="m 0,0 -6.359,0 0,4.522 6.831,0 0,2.45 -9.658,0 0,-16.487 2.827,0 0,7.066 6.359,0 L 0,0 Z" /></g><g
           transform="translate(277.9375,90.8481)"
           id="g96"><path
             id="path98"
             style="fill:#ffffff;fill-opacity:1;fill-rule:nonzero;stroke:none"
             d="m 0,0 0.096,0 6.5,-11.282 2.827,0 0,16.487 -2.827,0 0,-11.282 -0.096,0 -6.5,11.282 -2.825,0 0,-16.487 2.825,0 L 0,0 Z" /></g><path
           id="path100"
           style="fill:#ffffff;fill-opacity:1;fill-rule:nonzero;stroke:none"
           d="m 294.661,96.053 -2.826,0 0,-16.487 2.826,0 0,16.487 z" /><g
           transform="translate(174.2358,79.5664)"
           id="g102"><path
             id="path104"
             style="fill:#ffffff;fill-opacity:1;fill-rule:nonzero;stroke:none"
             d="m 0,0 0,16.487 -2.826,0 0,-11.282 -0.096,0 -6.5,11.282 -2.826,0 0,-16.487 2.826,0 0,11.282 0.095,0 L -2.826,0 0,0 Z" /></g><path
           id="path106"
           style="fill:#ffffff;fill-opacity:1;fill-rule:nonzero;stroke:none"
           d="m 294.002,46.495 2.826,0 0,16.486 -2.826,0 0,-16.486 z" /><g
           transform="translate(301.585,63.7588)"
           id="g108"><path
             id="path110"
             style="fill:#ffffff;fill-opacity:1;fill-rule:nonzero;stroke:none"
             d="m 0,0 2.19,0 2.873,3.109 -3.084,0 L 0,0 Z" /></g><path
           id="path112"
           style="fill:#ffffff;fill-opacity:1;fill-rule:nonzero;stroke:none"
           d="m 301.303,46.495 2.826,0 0,16.486 -2.826,0 0,-16.486 z" /><g
           transform="translate(170.7026,53.5605)"
           id="g114"><path
             id="path116"
             style="fill:#ffffff;fill-opacity:1;fill-rule:nonzero;stroke:none"
             d="m 0,0 6.83,0 0,2.449 -6.83,0 0,4.524 7.301,0 0,2.448 -10.127,0 0,-16.486 10.363,0 0,2.449 L 0,-4.616 0,0 Z" /></g><g
           transform="translate(207.21,56.0098)"
           id="g118"><path
             id="path120"
             style="fill:#ffffff;fill-opacity:1;fill-rule:nonzero;stroke:none"
             d="m 0,0 -6.595,0 0,6.972 -2.827,0 0,-16.487 2.827,0 0,7.066 6.595,0 0,-7.066 2.826,0 0,16.487 L 0,6.972 0,0 Z" /></g><g
           transform="translate(240.6553,50.3574)"
           id="g122"><path
             id="path124"
             style="fill:#ffffff;fill-opacity:1;fill-rule:nonzero;stroke:none"
             d="m 0,0 c 0,-0.848 -0.566,-1.413 -1.413,-1.413 l -3.77,0 c -0.847,0 -1.413,0.565 -1.413,1.413 l 0,8.762 c 0,0.847 0.566,1.414 1.413,1.414 l 3.77,0 C -0.566,10.176 0,9.609 0,8.762 L 0,0 Z m -1.179,12.624 -4.238,0 c -2.38,0 -4.005,-1.625 -4.005,-4.004 l 0,-8.478 c 0,-2.379 1.625,-4.004 4.005,-4.004 l 4.238,0 c 2.379,0 4.004,1.625 4.004,4.004 l 0,8.478 c 0,2.379 -1.625,4.004 -4.004,4.004" /></g><g
           transform="translate(223.9316,51.7002)"
           id="g126"><path
             id="path128"
             style="fill:#ffffff;fill-opacity:1;fill-rule:nonzero;stroke:none"
             d="m 0,0 -0.094,0 -6.501,11.281 -2.826,0 0,-16.486 2.826,0 0,11.282 0.095,0 6.5,-11.282 2.827,0 0,16.486 L 0,11.281 0,0 Z" /></g><g
           transform="translate(285.5225,62.9814)"
           id="g130"><path
             id="path132"
             style="fill:#ffffff;fill-opacity:1;fill-rule:nonzero;stroke:none"
             d="m 0,0 -3.769,0 c -2.378,0 -4.003,-1.625 -4.003,-4.004 l 0,-8.478 c 0,-2.379 1.625,-4.004 4.003,-4.004 l 3.769,0 c 2.379,0 4.004,1.625 4.004,4.004 l 0,4.334 -6.124,0 0,-2.451 3.298,0 0,-2.025 c 0,-0.848 -0.566,-1.413 -1.413,-1.413 l -3.297,0 c -0.849,0 -1.413,0.565 -1.413,1.413 l 0,8.762 c 0,0.847 0.564,1.414 1.413,1.414 l 3.297,0 c 0.847,0 1.413,-0.567 1.413,-1.414 l 0,-1.155 2.826,0 0,1.013 C 4.004,-1.625 2.379,0 0,0" /></g><g
           transform="translate(189.7808,62.9814)"
           id="g134"><path
             id="path136"
             style="fill:#ffffff;fill-opacity:1;fill-rule:nonzero;stroke:none"
             d="m 0,0 -3.769,0 c -2.379,0 -4.004,-1.625 -4.004,-4.004 l 0,-8.478 c 0,-2.379 1.625,-4.004 4.004,-4.004 l 3.769,0 c 2.379,0 4.004,1.625 4.004,4.004 l 0,1.013 -2.827,0 0,-1.155 c 0,-0.848 -0.565,-1.413 -1.413,-1.413 l -3.297,0 c -0.848,0 -1.413,0.565 -1.413,1.413 l 0,8.762 c 0,0.847 0.565,1.414 1.413,1.414 l 3.297,0 c 0.848,0 1.413,-0.567 1.413,-1.414 l 0,-1.155 2.827,0 0,1.013 C 4.004,-1.625 2.379,0 0,0" /></g><g
           transform="translate(270.4492,50.3574)"
           id="g138"><path
             id="path140"
             style="fill:#ffffff;fill-opacity:1;fill-rule:nonzero;stroke:none"
             d="m 0,0 c 0,-0.848 -0.565,-1.413 -1.413,-1.413 l -3.77,0 c -0.847,0 -1.413,0.565 -1.413,1.413 l 0,8.762 c 0,0.847 0.566,1.414 1.413,1.414 l 3.77,0 C -0.565,10.176 0,9.609 0,8.762 L 0,0 Z m -1.179,12.624 -4.238,0 c -2.38,0 -4.005,-1.625 -4.005,-4.004 l 0,-8.478 c 0,-2.379 1.625,-4.004 4.005,-4.004 l 4.238,0 c 2.379,0 4.004,1.625 4.004,4.004 l 0,8.478 c 0,2.379 -1.625,4.004 -4.004,4.004" /></g><g
           transform="translate(152.5669,60.5332)"
           id="g142"><path
             id="path144"
             style="fill:#ffffff;fill-opacity:1;fill-rule:nonzero;stroke:none"
             d="m 0,0 4.711,0 0,-14.038 2.826,0 0,14.038 4.711,0 0,2.448 L 0,2.448 0,0 Z" /></g><g
           transform="translate(250.7832,62.9814)"
           id="g146"><path
             id="path148"
             style="fill:#ffffff;fill-opacity:1;fill-rule:nonzero;stroke:none"
             d="m 0,0 -2.827,0 0,-16.486 9.657,0 0,2.449 -6.83,0 L 0,0 Z" /></g><g
           transform="translate(98.9932,55.2803)"
           id="g150"><path
             id="path152"
             style="fill:#ffffff;fill-opacity:1;fill-rule:nonzero;stroke:none"
             d="m 0,0 0,38.925 c 0,3.956 3.433,7.162 7.665,7.162 l 17.199,0 0,10.229 L -11.533,56.315 -11.533,0 0,0 Z" /></g><g
           transform="translate(87.4604,111.5962)"
           id="g154"><path
             id="path156"
             style="fill:#ffffff;fill-opacity:1;fill-rule:nonzero;stroke:none"
             d="m 0,0 0,11.18 -30.667,0 0,-11.181 L 0,-0.001 0,0 Z" /></g></g></g></g></svg>